PathFileType	4	(X/Y/Z)	OpenSim_Sub02_CSBaseline_Gyro.trc
DataRate	CameraRate	NumFrames	NumMarkers	Units	OrigDataRate	OrigDataStartFrame	OrigNumFrames
100	100	37	8	m	100	1765	7057
Frame#	Time	torso_imu_offset_imu	pelvis_imu_offset_imu	tibia_r_imu_offset_imu	femur_r_imu_offset_imu	tibia_l_imu_offset_imu	femur_l_imu_offset_imu	toes_r_imu_offset_imu	toes_l_imu_offset_imu
				X1	Y1	Z1	X2	Y2	Z2	X3	Y3	Z3	X4	Y4	Z4	X5	Y5	Z5	X6	Y6	Z6	X7	Y7	Z7	X8		Y8	Z8	

1765	17.64000000	-0.37503064	0.53358457	-0.09230393	-0.40691987	-0.08814010	-0.23609666	-0.36302435	0.34739897	-1.86136952	-0.34310042	0.27547314	-0.21318433	0.74981932	-1.36400797	-0.25846139	-2.12184377	-0.91643466	0.73578062	-0.01472709	-1.96634073	-0.21707366	-0.10754752	-4.43355106	1.14592446
1766	17.65000000	-0.37981242	0.52082480	-0.06747471	-0.33903755	-0.15217386	-0.29084093	-0.41597926	0.33994564	-1.92979243	-0.35469877	0.33697865	-0.11779707	2.04182188	-1.21597710	-0.16405211	-1.95731708	-1.12441049	1.10270096	0.01898410	-2.25902174	-0.25180072	0.03747267	-3.58250447	1.20185887
1767	17.66000000	-0.40981691	0.53965051	-0.05694739	-0.24348062	-0.12868410	-0.35863557	-0.49209279	0.35444773	-1.99506243	-0.31682074	0.39142510	0.00040159	1.41701007	-0.10652388	0.69917695	-1.64595913	-0.93421133	1.28952249	0.12424031	-2.57956535	-0.23855253	0.36805987	-2.20472277	1.03093075
1768	17.67000000	-0.46142911	0.59625681	-0.04875242	-0.06085583	-0.06941673	-0.45082421	-0.53504495	0.39993429	-2.04707832	-0.26672678	0.45255465	0.08794856	-0.26086730	-0.18354326	1.34549165	-1.28171054	-0.43134110	1.17870492	0.16597672	-2.97637345	-0.18012171	-0.36984551	-2.10560814	0.53753003
1769	17.68000000	-0.46340406	0.60233042	-0.04926141	0.18005223	-0.10151424	-0.54860857	-0.47665113	0.42697283	-2.09649406	-0.17082786	0.54646635	0.21114011	-1.59823915	-0.26751293	1.59526631	-0.94002242	0.13324126	0.81908870	0.14646861	-3.44383798	-0.15460752	-1.12694485	-0.98193153	-0.18922449
1770	17.69000000	-0.42949106	0.52918856	-0.05645307	0.42045069	-0.20499935	-0.64033061	-0.39472882	0.41467148	-2.14680267	-0.08038839	0.70042578	0.35307743	-3.30015601	0.32362957	1.60864105	-0.86837198	0.38658872	0.55463116	0.27226322	-3.92721069	-0.17725829	-0.85855934	0.00421649	-0.39097558
1771	17.70000000	-0.38921915	0.41891948	-0.08666408	0.60004616	-0.27150683	-0.68684329	-0.37338302	0.39039696	-2.21058824	-0.03587965	0.84565431	0.46797745	-4.58539987	0.67691371	1.28414793	-1.12728776	0.23418227	0.43565048	0.49334447	-4.39054441	-0.26130896	0.36000939	-0.29466556	-0.33092254
1772	17.71000000	-0.36742720	0.32418201	-0.12353240	0.58200479	-0.26744648	-0.65904734	-0.42872533	0.34445882	-2.25442417	-0.00279224	0.88483845	0.61385644	-4.87412099	0.50120508	0.96590883	-1.53195549	-0.13486860	0.59550526	0.50596451	-4.78250515	-0.46227173	0.29673532	-0.12612542	-0.53847075
1773	17.72000000	-0.38520386	0.27788411	-0.14929467	0.34140724	-0.22586245	-0.56032804	-0.45753359	0.28404872	-2.26117678	-0.10657351	0.99746761	0.76781055	-4.41837963	0.11165515	0.98042844	-1.74566622	-0.53892408	0.94000508	0.78754357	-5.13944121	-0.67288999	0.31946757	-0.18603361	-0.62975864
1774	17.73000000	-0.41591993	0.23580487	-0.16472186	0.00344943	-0.20891462	-0.44140524	-0.52042349	0.22308328	-2.28188071	-0.33903506	1.21326794	0.93715744	-3.51059654	-0.14461207	1.06095559	-1.58343669	-0.74067109	1.24034785	1.26918886	-5.51504880	-0.84039866	0.12421606	-0.09683540	-0.60607871
1775	17.74000000	-0.45571291	0.17366983	-0.18138159	-0.35655086	-0.19482578	-0.36301486	-0.61579706	0.20524274	-2.32969465	-0.57693440	1.34343858	1.15172419	-2.10864153	-0.26283755	0.95287842	-1.19230878	-0.60338189	1.57327320	1.20499137	-5.83628753	-0.97582293	-0.03495415	-0.06869368	-0.53466619
1776	17.75000000	-0.49955961	0.10728144	-0.19273757	-0.69529322	-0.18869755	-0.35916624	-0.58611334	0.16744291	-2.44330980	-0.82657061	1.38701404	1.40028558	-0.44112801	-0.48009063	0.91109725	-0.74302712	-0.36335729	1.70607474	0.95858771	-6.11941998	-1.16688466	-0.08088459	0.02070434	-0.37617495
1777	17.76000000	-0.56280732	0.04206587	-0.20022158	-0.98148492	-0.17048120	-0.40957506	-0.79644615	0.04761164	-2.55815192	-1.13877051	1.42918667	1.65515863	1.04323480	-0.66489006	0.95911946	-0.43362233	-0.22104519	1.56690147	1.40522461	-6.12237279	-1.34333188	0.03649793	0.05371593	-0.19480378
1778	17.77000000	-0.64001169	-0.00894007	-0.19863106	-1.15525378	-0.08861515	-0.46157233	-1.29344177	-0.05882521	-2.56189115	-1.44536400	1.46665988	1.85878426	2.04910596	-0.61017342	0.91246915	-0.19266906	-0.24887311	1.30001609	1.07546130	-6.21270480	-1.62847132	0.02487408	0.05072251	-0.10174552
1779	17.78000000	-0.72521314	-0.04033111	-0.20500042	-1.18866874	0.04955758	-0.49958903	-1.76024915	-0.12604364	-2.43885894	-1.67898432	1.45515131	1.97966372	2.62917300	-0.37660843	0.85941437	-0.15475485	-0.38946580	1.07580559	0.47937946	-5.93778790	-1.76479588	0.05719123	0.02308336	-0.03826534
1780	17.79000000	-0.80911142	-0.05039230	-0.23984135	-1.13325781	0.21157303	-0.51445674	-2.08378002	-0.16178095	-2.24315171	-1.79939028	1.40299932	2.03014976	2.37043574	-0.34789545	0.86355145	-0.34721727	-0.61866619	0.80846867	-0.77220935	-5.69148750	-1.66971356	0.06246391	0.02718227	-0.00992374
1781	17.80000000	-0.87707579	-0.05159315	-0.27661587	-1.03022680	0.34582974	-0.47960287	-2.22632145	-0.16203436	-2.04881939	-1.79140301	1.35072446	2.04257584	1.67695866	-0.37775117	0.96339218	-0.51533299	-0.71766929	0.82430383	-1.53522367	-5.46902191	-1.89675818	0.08293217	0.00875622	-0.00912720
1782	17.81000000	-0.91906162	-0.05910524	-0.30949913	-0.88932570	0.39755237	-0.36654047	-2.28058022	-0.17676345	-1.85489664	-1.64352734	1.29135732	2.04668723	0.70023145	-0.12338410	0.94749951	-0.57230933	-0.60358755	0.86494882	-1.78283099	-5.03793727	-2.14611260	0.10444355	-0.00021503	-0.04216222
1783	17.82000000	-0.94482789	-0.09201806	-0.32916179	-0.72049549	0.36205403	-0.19980437	-2.32346801	-0.29732048	-1.63508137	-1.39514868	1.21503505	2.03091664	-0.21417727	0.04003307	0.86480475	-0.63290677	-0.52853896	0.64697074	-1.95423489	-4.53076055	-2.35689456	0.11708827	-0.05489546	-0.04584621
1784	17.83000000	-0.94939672	-0.14511401	-0.32094708	-0.56962672	0.28002715	-0.03992135	-2.44989624	-0.53724771	-1.40947864	-1.09830357	1.11006834	2.02375347	-0.74933965	0.09428409	0.78893902	-0.61571654	-0.47632872	0.61775988	-2.48934961	-4.05288819	-2.59503290	0.06259705	-0.06417363	-0.04360048
1785	17.84000000	-0.95062745	-0.22303410	-0.29257483	-0.46223879	0.20711986	0.07541649	-2.64465411	-0.82125621	-1.18794795	-0.80599416	1.00527626	2.01332431	-0.97014537	0.07156088	0.77257287	-0.56717300	-0.39562993	0.56636317	-2.71399968	-3.49445344	-2.91404978	0.03334565	-0.07751288	-0.04317215
1786	17.85000000	-0.95481946	-0.31056251	-0.26862179	-0.37656294	0.13808003	0.13848911	-2.79011150	-1.07737843	-0.96070707	-0.56968731	0.90031108	1.96785895	-0.91987784	0.07373478	0.81328310	-0.47905657	-0.33464345	0.48404517	-3.45009999	-2.63808750	-3.30704747	0.06944428	-0.09357384	-0.01374240
1787	17.86000000	-0.96834370	-0.36606893	-0.26352363	-0.31352062	0.05231630	0.16682269	-2.70083206	-1.24367768	-0.72642485	-0.45502276	0.81041508	1.85780331	-0.51827061	0.02367524	0.89745542	-0.32635833	-0.30538527	0.45126480	-4.86034295	-0.43291374	-3.43513012	0.04306299	-0.08997778	0.00560888
1788	17.87000000	-0.96581862	-0.39203343	-0.26827088	-0.27024640	-0.04172654	0.20846375	-2.22189793	-1.25006767	-0.55879069	-0.47487574	0.75782454	1.72509493	0.26766704	-0.04781851	0.90312604	-0.10496144	-0.31691662	0.44208432	-3.92504056	1.91951644	-2.98923223	0.06823286	-0.10834916	0.03122772
1789	17.88000000	-0.94253811	-0.39959146	-0.27103802	-0.24622830	-0.10522955	0.25661613	-1.49665605	-1.31843746	-0.50746681	-0.53284949	0.71632538	1.59431756	0.94943771	0.03544057	0.86613135	0.13575576	-0.37424124	0.42492726	-1.77302342	2.69529643	-2.36021135	0.07188692	-0.08422820	0.05291365
1790	17.89000000	-0.88875459	-0.41478826	-0.27365525	-0.25281173	-0.13047472	0.28389669	-1.14563841	-1.59352916	-0.38246492	-0.55924625	0.67896310	1.47801355	1.23029682	0.06942275	0.90925610	0.35804045	-0.44329339	0.48598868	-0.59329302	3.00467859	-1.64245551	0.05500231	-0.07903455	0.07261106
1791	17.90000000	-0.81535997	-0.43360962	-0.26017913	-0.27216257	-0.12449518	0.30029492	-1.42342481	-1.88584451	0.05093552	-0.57546551	0.64122294	1.41492649	1.20828509	0.06320925	0.93374158	0.55836487	-0.46102140	0.51728460	0.23192802	2.95254388	-0.81937073	0.05728785	-0.07120193	0.07556311
1792	17.91000000	-0.74624061	-0.44216786	-0.23546434	-0.30788191	-0.08716939	0.29814738	-1.86858546	-2.00735890	0.74562757	-0.60369376	0.57675055	1.38591441	1.12064322	0.16817424	0.90220798	0.71424736	-0.44303844	0.48180956	-0.07836387	2.74610941	0.11218664	0.04217828	-0.08259557	0.08857019
1793	17.92000000	-0.69353547	-0.43484811	-0.19986123	-0.35239982	-0.03778398	0.29591384	-1.95073024	-1.84053056	1.44657819	-0.61401790	0.48936302	1.36097862	0.93426317	0.22788566	0.84033715	0.82104903	-0.42705226	0.43150104	-0.73624323	2.60099799	1.09276907	0.00341113	-0.07322988	0.09535930
1794	17.93000000	-0.65824859	-0.41939216	-0.16716188	-0.39479933	-0.00123405	0.31790700	-1.63790133	-1.40775607	1.98701003	-0.52792205	0.40067463	1.32441934	0.74032422	0.26845913	0.83381017	0.82855472	-0.47491373	0.37491858	-1.12148240	2.69077345	1.88125691	0.00011198	-0.05867476	0.09776531
1795	17.94000000	-0.63506886	-0.39480855	-0.14144048	-0.42255175	0.03180101	0.34673760	-1.03886370	-0.94343019	2.29156440	-0.34312969	0.33817384	1.27108660	0.55310696	0.27548578	0.86524928	0.82957626	-0.48122600	0.35554786	-0.92083388	2.98692652	2.35592883	-0.00559942	-0.05868109	0.11308171
1796	17.95000000	-0.62600126	-0.37071091	-0.11221019	-0.43681859	0.06968172	0.37931969	-0.05316868	-0.75816029	2.37736728	-0.08647522	0.30058302	1.22116616	0.50427055	0.26932992	0.88584441	0.86729575	-0.39041300	0.38684952	-0.63834367	3.43837741	2.58649465	-0.03489633	-0.05566023	0.12801313
1797	17.96000000	-0.62510321	-0.35133418	-0.08494442	-0.43704020	0.11878716	0.40136267	1.15803101	-0.79647429	2.38675734	0.18128299	0.28089798	1.18280144	0.51457494	0.28724585	0.86850440	0.85110128	-0.32583772	0.39891252	-0.58488190	4.01375504	2.66212873	-0.03210490	-0.07086802	0.15221627
1798	17.97000000	-0.62961029	-0.33120326	-0.07750107	-0.41102846	0.18161191	0.40614364	2.25494311	-0.75747520	2.46084193	0.41542943	0.25341447	1.14258852	0.56593647	0.30777548	0.85303002	0.77653788	-0.28255944	0.38932483	-0.71447746	4.57779484	2.62424609	-0.04940089	-0.04692231	0.17244819
1799	17.98000000	-0.63694996	-0.30675480	-0.07853902	-0.36177115	0.23352584	0.39087370	2.91280329	-0.59290586	2.66669219	0.60442286	0.21252961	1.07178377	0.60142886	0.33126098	0.88709683	0.67001562	-0.26105441	0.39279225	-1.10177860	4.92261813	2.48908965	-0.06795493	-0.04030966	0.18974178
1800	17.99000000	-0.65256061	-0.29124300	-0.08707453	-0.30658993	0.26780706	0.35927661	3.12380884	-0.51215385	3.06088463	0.75128053	0.17022322	0.97125906	0.58160946	0.33776322	0.89883955	0.51926930	-0.23997994	0.39876024	-1.57027962	5.02281685	2.25159169	-0.05303157	-0.02736780	0.19319873
1801	18	-0.64962159	-0.29845678	-0.10118840	-0.25472572	0.28211193	0.32186189	2.99022493	-0.48352690	3.55087397	0.89001006	0.12693038	0.88530506	0.57159018	0.31491981	0.88721823	0.35902679	-0.21685000	0.41259601	-1.81407015	4.96020726	1.94785682	-0.07251039	-0.02684413	0.20339141
